<svg width="118" height="132" viewBox="0 0 118 132" fill="none" xmlns="http://www.w3.org/2000/svg">
<path d="M0 60.1185V132H38.8529C46.9625 122.009 58.9348 102.647 58.9348 88.7662C58.9348 102.648 70.83 122.011 79.0166 132H117.87V60.1185H0Z" fill="url(#paint0_radial_303_2442)"/>
<path d="M0 60.1185V132H38.8529C46.9625 122.009 58.9348 102.647 58.9348 88.7662C58.9348 102.648 70.83 122.011 79.0166 132H117.87V60.1185H0Z" fill="url(#paint1_linear_303_2442)"/>
<path d="M59.3576 0L116.661 51.8747H2.05389L59.3576 0Z" fill="url(#paint2_radial_303_2442)"/>
<path d="M59.3576 0L116.661 51.8747H2.05389L59.3576 0Z" fill="url(#paint3_linear_303_2442)"/>
<defs>
<radialGradient id="paint0_radial_303_2442" cx="0" cy="0" r="1" gradientUnits="userSpaceOnUse" gradientTransform="translate(58.9348 2.80532e-06) rotate(90) scale(132 117.87)">
<stop stop-color="#FF6FA5"/>
<stop offset="0.418635" stop-color="#FC0367"/>
<stop offset="1" stop-color="#E3464E"/>
</radialGradient>
<linearGradient id="paint1_linear_303_2442" x1="58.9348" y1="0" x2="58.9348" y2="132" gradientUnits="userSpaceOnUse">
<stop stop-color="white" stop-opacity="0.4"/>
<stop offset="1" stop-color="white" stop-opacity="0.05"/>
</linearGradient>
<radialGradient id="paint2_radial_303_2442" cx="0" cy="0" r="1" gradientUnits="userSpaceOnUse" gradientTransform="translate(58.9348 2.80532e-06) rotate(90) scale(132 117.87)">
<stop stop-color="#FF6FA5"/>
<stop offset="0.418635" stop-color="#FC0367"/>
<stop offset="1" stop-color="#E3464E"/>
</radialGradient>
<linearGradient id="paint3_linear_303_2442" x1="58.9348" y1="0" x2="58.9348" y2="132" gradientUnits="userSpaceOnUse">
<stop stop-color="white" stop-opacity="0.4"/>
<stop offset="1" stop-color="white" stop-opacity="0.05"/>
</linearGradient>
</defs>
</svg>
