<svg width="1068" height="566" viewBox="0 0 1068 566" fill="none" xmlns="http://www.w3.org/2000/svg">
<path d="M95.7803 195.822C38.8614 195.822 3.25058 167.508 0.623557 117.595H69.2181C70.0938 131.022 79.4344 138.319 93.1533 138.319C108.915 138.319 115.045 129.854 115.045 114.384V0.546009H182.18V116.719C182.18 166.632 155.326 195.822 95.7803 195.822ZM293.653 196.405C228.853 196.405 196.161 166.341 196.161 113.508V0.546009H262.713V108.254C262.713 126.351 273.805 138.027 293.653 138.027C313.794 138.027 324.886 126.351 324.886 108.254V0.546009H391.437V113.508C391.437 166.341 358.745 196.405 293.653 196.405ZM406.996 190.568V0.546009H483.18L553.526 106.795V0.546009H615.991V190.568H539.223L469.461 85.4865V190.568H406.996ZM632.905 190.568V0.546009H803.37V53.9622H698.58V71.4757H802.786V119.638H698.58V137.151H803.37V190.568H632.905ZM980.968 195.822C931.054 195.822 889.605 169.26 883.184 129.854H950.611C955.865 140.07 967.54 144.157 979.8 144.157C992.935 144.157 1005.49 138.319 1005.49 124.6C1005.49 111.757 994.103 105.043 980.384 105.043C967.54 105.043 958.2 109.422 952.654 115.551H885.811L900.697 0.546009H1063.28V53.3784H948.859L943.605 84.9028C956.157 69.1406 975.13 62.719 999.357 62.719C1035.55 62.719 1067.95 84.6109 1067.95 126.06C1067.95 165.757 1039.05 195.822 980.968 195.822ZM20.0555 523.832C20.0555 458.449 46.6177 425.757 119.766 407.368L160.222 397.151C172.481 394.291 182.289 390.204 182.289 379.171C182.289 366.503 170.03 355.878 147.554 355.878C127.121 355.878 109.958 366.911 109.141 383.666H18.0123C24.142 329.724 73.9972 285.182 150.414 285.182C234.187 285.182 271.374 332.994 271.374 376.31C271.374 425.348 244.404 446.189 196.183 457.631L129.165 473.977C120.992 476.429 116.905 479.29 116.497 485.828H259.115V558.568H20.0555V523.832ZM405.903 565.923C322.13 565.923 269.823 510.756 269.823 427.8C269.823 344.844 322.13 285.182 405.903 285.182C489.676 285.182 542.8 344.844 542.8 427.8C542.8 510.756 489.676 565.923 405.903 565.923ZM405.903 489.915C434.1 489.915 452.897 463.352 452.897 426.574C452.897 390.204 434.1 364.051 405.903 364.051C377.706 364.051 360.134 390.204 360.134 426.574C360.134 463.352 377.706 489.915 405.903 489.915ZM540.077 523.832C540.077 458.449 566.639 425.757 639.787 407.368L680.243 397.151C692.503 394.291 702.31 390.204 702.31 379.171C702.31 366.503 690.051 355.878 667.575 355.878C647.143 355.878 629.98 366.911 629.162 383.666H538.034C544.163 329.724 594.019 285.182 670.436 285.182C754.209 285.182 791.396 332.994 791.396 376.31C791.396 425.348 764.425 446.189 716.204 457.631L649.186 473.977C641.013 476.429 636.927 479.29 636.518 485.828H779.136V558.568H540.077V523.832ZM930.011 565.923C881.382 565.923 842.151 547.943 819.267 518.111C800.878 494.818 789.844 462.944 789.844 424.122C789.844 366.503 820.493 285.182 930.011 285.182C994.169 285.182 1043.21 319.1 1056.69 372.224H964.746C962.294 364.051 950.852 353.426 928.785 353.426C896.502 353.426 874.026 375.084 874.026 414.315V415.541C889.146 391.43 917.343 382.031 945.131 382.031C1017.46 382.031 1050.56 422.896 1050.56 470.3C1050.56 514.434 1014.6 565.923 930.011 565.923ZM928.376 499.722C948.809 499.722 965.563 487.871 965.563 468.256C965.563 449.05 948.809 438.016 928.376 438.016C907.535 438.016 889.146 449.458 889.146 468.256C889.146 487.054 906.718 499.722 928.376 499.722Z" fill="url(#paint0_linear_998_8518)"/>
<defs>
<linearGradient id="paint0_linear_998_8518" x1="417.784" y1="679.635" x2="872.43" y2="30.4643" gradientUnits="userSpaceOnUse">
<stop stop-color="#DAF6E6"/>
<stop offset="1" stop-color="#FFDC94"/>
</linearGradient>
</defs>
</svg>
